Coordinates
nRows=10
nColumns=24

# SIMM Motion File Header:
name Coordinates
datacolumns 24
datarows 10
otherdata 1
range 0.52732999999999997000 0.53632999999999997000
endheader
time	pelvis_tx	pelvis_ty	pelvis_tz	pelvis_tilt	pelvis_list	pelvis_rotation	hip_flexion_r	hip_adduction_r	hip_rotation_r	knee_angle_r	ankle_angle_r	subtalar_angle_r	mtp_angle_r	hip_flexion_l	hip_adduction_l	hip_rotation_l	knee_angle_l	ankle_angle_l	subtalar_angle_l	mtp_angle_l	lumbar_extension	lumbar_bending	lumbar_rotation
      0.52732999999999997000	      0.94207186789953046000	      0.94692525302099917000	     -0.19202855128438340000	      0.94464048673840784000	      2.82707429129055350000	      1.28212944426611150000	     -7.83281922893938990000	     -0.34794569825649185000	     12.05171857330307000000	     -5.08937255221382310000	     12.50001719682884600000	      0.00000000000004735423	      0.00000000000004934084	     21.69494410769801400000	      2.72301498215889070000	     -0.79977694707204150000	    -14.94088075600881600000	     -3.57753811015163730000	      0.00000000000002296927	     -0.00000000000003192426	     -4.13088369381712630000	     -0.42602706430132115000	      6.18615717910589420000
      0.52832999999999997000	      0.94274036571597242000	      0.94680761505328048000	     -0.19200395121446981000	      0.93992092123644233000	      2.82201440904036270000	      1.26131300071179920000	     -7.87657106008101950000	     -0.34602253274950601000	     12.06909379899089900000	     -5.08247803446009080000	     12.53719327274141400000	      0.00000000000004757716	      0.00000000000004923733	     21.69227714253435500000	      2.71575890132591360000	     -0.82512116913863753000	    -14.70152777757823300000	     -3.69030173672618260000	      0.00000000000002300720	     -0.00000000000003193940	     -4.12439024589054350000	     -0.42639420892131996000	      6.20807206643163220000
      0.52932999999999997000	      0.94340958235332539000	      0.94668961048654499000	     -0.19197922742650342000	      0.93552700683111645000	      2.81693089007334360000	      1.24005228551880190000	     -7.92020337644271690000	     -0.34413841447220861000	     12.08611611355464700000	     -5.07660967860048460000	     12.57515339942946600000	      0.00000000000004780618	      0.00000000000004911079	     21.68867467556626100000	      2.70830618676173480000	     -0.85143884608737541000	    -14.46428389505808800000	     -3.80208601390916150000	      0.00000000000002303997	     -0.00000000000003194247	     -4.11838457970119090000	     -0.42676136779215490000	      6.22979715720548470000
      0.53032999999999997000	      0.94407903859764863000	      0.94657148372013722000	     -0.19195446239918609000	      0.93124164279133692000	      2.81183949220071480000	      1.21864347977957600000	     -7.96379585454443720000	     -0.34226731193814064000	     12.10302079107703800000	     -5.07108337670558560000	     12.61337487637601200000	      0.00000000000004803722	      0.00000000000004897657	     21.68476037466335900000	      2.70078792762048940000	     -0.87808100799682698000	    -14.22774304450808800000	     -3.91354384129495210000	      0.00000000000002307102	     -0.00000000000003194152	     -4.11254150742424860000	     -0.42712853141326862000	      6.25145898246204100000
      0.53132999999999997000	      0.94474871537049110000	      0.94645323420591043000	     -0.19192966711133252000	      0.92704131866787798000	      2.80674301897838370000	      1.19708894004104780000	     -8.00732382645369080000	     -0.34041363949271669000	     12.11980626536562500000	     -5.06588676542399520000	     12.65160185519781600000	      0.00000000000004825340	      0.00000000000004887110	     21.68058400527435100000	      2.69321450539346200000	     -0.90501798537662592000	    -13.99193412923008300000	     -4.02462594280132800000	      0.00000000000002310294	     -0.00000000000003194191	     -4.10683394709445790000	     -0.42749564597407685000	      6.27306193652351940000
      0.53232999999999997000	      0.94541905372889079000	      0.94633461644822670000	     -0.19190478104187023000	      0.92309611429338001000	      2.80163131970694450000	      1.17509719830461280000	     -8.05065827978554620000	     -0.33861225731322447000	     12.13623412995280000000	     -5.06167922598232240000	     12.68984533964540000000	      0.00000000000004842494	      0.00000000000004885185	     21.67562143042703600000	      2.68547559390908750000	     -0.93283940916746455000	    -13.75832101976806300000	     -4.13458086666946390000	      0.00000000000002313749	     -0.00000000000003194630	     -4.10153292260612100000	     -0.42786261335396869000	      6.29448827699976390000
      0.53332999999999997000	      0.94608939208729059000	      0.94621599869054296000	     -0.19187989497240793000	      0.91915090991888204000	      2.79651962043550560000	      1.15310545656817800000	     -8.09399273311740150000	     -0.33681087513373226000	     12.15266199453997800000	     -5.05747168654065060000	     12.72808882409298400000	      0.00000000000004859649	      0.00000000000004883260	     21.67065885557971700000	      2.67773668242471310000	     -0.96066083295830307000	    -13.52470791030604100000	     -4.24453579053760070000	      0.00000000000002317204	     -0.00000000000003195069	     -4.09623189811778410000	     -0.42822958073386058000	      6.31591461747600920000
      0.53432999999999997000	      0.94676054757877659000	      0.94609685733666404000	     -0.19185492183064451000	      0.91544136984148849000	      2.79139908861775240000	      1.13054518642907900000	     -8.13696587300243660000	     -0.33509221622659341000	     12.16862042147776900000	     -5.05453716153796420000	     12.76583317920912600000	      0.00000000000004876525	      0.00000000000004887379	     21.66484702146308200000	      2.66981475633470080000	     -0.98954062709806978000	    -13.29408236719425100000	     -4.35286519879876370000	      0.00000000000002319713	     -0.00000000000003193894	     -4.09134940555381470000	     -0.42860031074528482000	      6.33712451860293060000
      0.53532999999999997000	      0.94743170307026259000	      0.94597771598278513000	     -0.19182994868888109000	      0.91173182976409506000	      2.78627855679999970000	      1.10798491628997970000	     -8.17993901288747340000	     -0.33337355731945462000	     12.18457884841556000000	     -5.05160263653527690000	     12.80357753432526700000	      0.00000000000004893401	      0.00000000000004891499	     21.65903518734644400000	      2.66189283024468850000	     -1.01842042123783650000	    -13.06345682408246100000	     -4.46119460705992750000	      0.00000000000002322221	     -0.00000000000003192718	     -4.08646691298984610000	     -0.42897104075670911000	      6.35833441972985190000
      0.53632999999999997000	      0.94810349605334521000	      0.94585816124517574000	     -0.19180493063350168000	      0.90818099989746948000	      2.78118139468871380000	      1.08496457053456320000	     -8.22257761340195080000	     -0.33175322043215133000	     12.20016699146104400000	     -5.04970975324406530000	     12.84095552576372900000	      0.00000000000004906586	      0.00000000000004905775	     21.65262221793401000000	      2.65387093371911400000	     -1.04810057188840180000	    -12.83538880745760300000	     -4.56803996143605230000	      0.00000000000002325124	     -0.00000000000003189940	     -4.08188813205170580000	     -0.42937402692121834000	      6.37937333246115570000
